<svg width="129" height="95" viewBox="0 0 129 95" fill="none" xmlns="http://www.w3.org/2000/svg">
<path d="M45.908 63.1977C45.8033 63.0603 45.606 63.0358 45.4715 63.1427C43.1065 65.0367 41.2499 66.4418 39.453 67.6912C39.3125 67.789 39.2736 67.9875 39.3723 68.1311C39.432 68.2227 39.5307 68.2686 39.6294 68.2686C39.6892 68.2686 39.752 68.2502 39.8028 68.2136C41.6116 66.955 43.4772 65.5437 45.8541 63.6407C45.9917 63.5368 46.0126 63.3352 45.908 63.1977Z" fill="#767676"/>
<path d="M36.3471 70.6934C36.4099 70.6934 36.4727 70.6751 36.5295 70.6323L37.3577 70.0215C37.4953 69.9176 37.5282 69.7222 37.4265 69.5786C37.3248 69.4351 37.1305 69.4045 36.993 69.5084L36.1647 70.1192C36.0272 70.223 35.9943 70.4185 36.0959 70.562C36.1557 70.6476 36.2514 70.6934 36.3471 70.6934Z" fill="#767676"/>
<path d="M55.4699 63.335L53.4009 66.6248C53.3082 66.7715 53.3501 66.97 53.4936 67.0647C53.5444 67.0983 53.6042 67.1166 53.661 67.1166C53.7627 67.1166 53.8643 67.0647 53.9212 66.97L55.9902 63.6802C56.0829 63.5336 56.041 63.335 55.8975 63.2403C55.757 63.1456 55.5626 63.1884 55.4699 63.335Z" fill="#767676"/>
<path d="M45.3826 78.6722C45.4783 78.6722 45.571 78.6264 45.6338 78.5409L52.7915 68.546C52.8931 68.4055 52.8632 68.207 52.7227 68.1031C52.5852 67.9992 52.3908 68.0298 52.2892 68.1734L45.1315 78.1682C45.0298 78.3087 45.0597 78.5073 45.2002 78.6111C45.254 78.6539 45.3198 78.6722 45.3826 78.6722Z" fill="#767676"/>
<path d="M61.3391 63.4113C60.6066 66.2368 59.7784 69.0868 58.9771 71.8421C57.9516 75.3732 56.8902 79.0235 56.0172 82.6677C55.9754 82.8388 56.077 83.0098 56.2445 83.0526C56.2684 83.0587 56.2953 83.0618 56.3192 83.0618C56.4597 83.0618 56.5853 82.964 56.6212 82.8204C57.4882 79.1915 58.5466 75.5474 59.5721 72.0254C60.3734 69.264 61.2045 66.4079 61.94 63.5762C61.9849 63.4082 61.8862 63.2341 61.7188 63.1883C61.5573 63.1425 61.3839 63.2433 61.3391 63.4113Z" fill="#767676"/>
<path d="M40.8394 75.4554C40.9232 75.4554 41.0039 75.4218 41.0667 75.3546L47.2826 68.6377C47.3992 68.5094 47.3962 68.3109 47.2706 68.1887C47.145 68.0696 46.9507 68.0757 46.8311 68.2009L40.6152 74.9178C40.4986 75.0461 40.5016 75.2447 40.6272 75.3669C40.687 75.428 40.7617 75.4554 40.8394 75.4554Z" fill="#767676"/>
<path d="M36.1849 63.0877L32.9439 64.7523C32.7914 64.8317 32.7286 65.0211 32.8064 65.1769C32.8602 65.2868 32.9708 65.3509 33.0844 65.3509C33.1323 65.3509 33.1801 65.3387 33.2249 65.3174L36.4659 63.6528C36.6184 63.5734 36.6812 63.384 36.6034 63.2282C36.5227 63.0725 36.3374 63.0083 36.1849 63.0877Z" fill="#767676"/>
<path d="M48.6138 66.9393L51.5587 63.6832C51.6753 63.5549 51.6664 63.3533 51.5408 63.2342C51.4152 63.115 51.2179 63.1242 51.1013 63.2525L48.1563 66.5086C48.0397 66.6369 48.0487 66.8385 48.1743 66.9576C48.2341 67.0126 48.3088 67.0432 48.3836 67.0432C48.4673 67.0401 48.551 67.0065 48.6138 66.9393Z" fill="#767676"/>
<path d="M59.0331 63.6528C59.1048 63.494 59.0361 63.3046 58.8776 63.2313C58.7221 63.161 58.5368 63.2283 58.465 63.3901C57.4485 65.678 56.3422 67.9721 55.2719 70.1897C53.6873 73.4765 52.0488 76.8732 50.6645 80.3279C50.5988 80.4898 50.6765 80.6761 50.835 80.7403C50.8738 80.7556 50.9127 80.7647 50.9516 80.7647C51.0741 80.7647 51.1907 80.6914 51.2386 80.5662C52.6139 77.1298 54.2493 73.7422 55.828 70.4677C56.9043 68.247 58.0135 65.9468 59.0331 63.6528Z" fill="#767676"/>
<path d="M69.5839 84.1583C69.6048 84.3171 69.7394 84.4332 69.8919 84.4332C69.9038 84.4332 69.9188 84.4332 69.9337 84.4301C70.1042 84.4088 70.2237 84.2469 70.2028 84.0758C69.7693 80.6821 69.4583 77.212 69.1564 73.8579C68.8484 70.4153 68.5285 66.8566 68.074 63.3682C68.0501 63.1941 67.8976 63.075 67.7242 63.0964C67.5538 63.1208 67.4342 63.2796 67.4581 63.4538C67.9096 66.93 68.2295 70.4825 68.5375 73.919C68.8364 77.2792 69.1504 80.7523 69.5839 84.1583Z" fill="#767676"/>
<path d="M72.8544 72.0073C74.0324 75.6392 75.2493 79.3964 76.2539 83.1474C76.2928 83.2879 76.4153 83.3826 76.5529 83.3826C76.5798 83.3826 76.6067 83.3796 76.6336 83.3704C76.798 83.3246 76.8967 83.1505 76.8519 82.9825C75.8443 79.2131 74.6244 75.4498 73.4435 71.8087C72.5495 69.0504 71.6256 66.1974 70.8004 63.3689C70.7526 63.2009 70.5792 63.1062 70.4147 63.1551C70.2503 63.2039 70.1576 63.3811 70.2054 63.5491C71.0336 66.3868 71.9605 69.2429 72.8544 72.0073Z" fill="#767676"/>
<path d="M83.9833 80.3986C84.0401 80.5024 84.1447 80.5605 84.2524 80.5605C84.3032 80.5605 84.357 80.5483 84.4049 80.5208C84.5544 80.4352 84.6082 80.2397 84.5215 80.09C83.4332 78.1228 82.3449 76.1129 81.2925 74.167C79.364 70.6022 77.3698 66.9182 75.2979 63.3565C75.2112 63.2068 75.0198 63.1579 74.8733 63.2465C74.7268 63.3351 74.676 63.5306 74.7657 63.6803C76.8347 67.2329 78.8259 70.9138 80.7513 74.4725C81.8067 76.4153 82.895 78.4283 83.9833 80.3986Z" fill="#767676"/>
<path d="M88.4913 67.7275C88.5511 67.7794 88.6228 67.8039 88.6946 67.8039C88.7813 67.8039 88.868 67.7672 88.9308 67.6939C89.0414 67.5595 89.0265 67.3609 88.8979 67.2479L84.165 63.1026C84.0364 62.9896 83.8391 63.0049 83.7284 63.1362C83.6178 63.2706 83.6328 63.4692 83.7613 63.5822L88.4913 67.7275Z" fill="#767676"/>
<path d="M93.1205 72.1689C93.1803 72.2269 93.2581 72.2544 93.3328 72.2544C93.4165 72.2544 93.4973 72.2208 93.56 72.1536C93.6766 72.0254 93.6707 71.8238 93.5451 71.7047L92.3013 70.5105C92.1758 70.3914 91.9784 70.3975 91.8618 70.5257C91.7452 70.654 91.7512 70.8556 91.8768 70.9747L93.1205 72.1689Z" fill="#767676"/>
<path d="M64.3794 63.1456C64.212 63.1334 64.0565 63.2556 64.0416 63.4328C63.614 68.0117 63.1715 72.9755 62.6453 79.0482C62.6303 79.2223 62.7559 79.3781 62.9263 79.3934C62.9353 79.3934 62.9442 79.3934 62.9532 79.3934C63.1117 79.3934 63.2492 79.2681 63.2612 79.1032C63.7844 73.0305 64.2269 68.0697 64.6545 63.4908C64.6754 63.3197 64.5528 63.1639 64.3794 63.1456Z" fill="#767676"/>
<path d="M62.9388 79.5188C62.7744 79.5065 62.6159 79.6318 62.601 79.8059L62.2063 84.125C62.1913 84.2991 62.3169 84.4549 62.4873 84.4701C62.4963 84.4701 62.5083 84.4732 62.5172 84.4732C62.6757 84.4732 62.8103 84.351 62.8252 84.1861L63.2199 79.867C63.2348 79.6898 63.1092 79.534 62.9388 79.5188Z" fill="#767676"/>
<path d="M89.1971 77.0352C89.2658 77.0352 89.3346 77.0108 89.3914 76.9649C89.526 76.855 89.5469 76.6564 89.4393 76.519C85.8963 71.9828 82.3892 67.5353 79.0137 63.2985C78.9061 63.1611 78.7087 63.1427 78.5772 63.2527C78.4456 63.3627 78.4247 63.5643 78.5323 63.6987C81.9049 67.9355 85.412 72.3799 88.9519 76.9161C89.0177 76.9955 89.1074 77.0352 89.1971 77.0352Z" fill="#767676"/>
<path d="M93.2245 65.275C93.3291 65.275 93.4278 65.2231 93.4876 65.1254C93.5773 64.9757 93.5354 64.7802 93.3889 64.6885L91.018 63.1733C90.8745 63.0816 90.6801 63.1244 90.5904 63.2741C90.5008 63.4238 90.5426 63.6193 90.6891 63.7109L93.06 65.2262C93.1109 65.2567 93.1677 65.275 93.2245 65.275Z" fill="#767676"/>
<path d="M82.6619 34.2729C82.7217 34.3553 82.8144 34.3981 82.9071 34.3981C82.9728 34.3981 83.0386 34.3767 83.0954 34.334L92.1995 27.2075C92.337 27.1006 92.3609 26.902 92.2563 26.7615C92.1516 26.6241 91.9573 26.5966 91.8198 26.7035L82.7157 33.8299C82.5842 33.9338 82.5572 34.1354 82.6619 34.2729Z" fill="#767676"/>
<path d="M78.1458 27.8465C78.0022 27.7518 77.8109 27.7946 77.7152 27.9412L73.957 33.919C73.8644 34.0656 73.9062 34.2611 74.0497 34.3588C74.1005 34.3924 74.1603 34.4077 74.2172 34.4077C74.3188 34.4077 74.4205 34.3558 74.4773 34.2611L78.2355 28.2833C78.3311 28.1367 78.2893 27.9412 78.1458 27.8465Z" fill="#767676"/>
<path d="M86.0065 16.3667L78.8487 26.3616C78.7471 26.5021 78.777 26.7007 78.9175 26.8045C78.9713 26.8473 79.0371 26.8656 79.0999 26.8656C79.1956 26.8656 79.2913 26.8198 79.3511 26.7343L86.5088 16.7394C86.6104 16.5989 86.5805 16.4003 86.44 16.2965C86.3025 16.1957 86.1081 16.2262 86.0065 16.3667Z" fill="#767676"/>
<path d="M75.6239 12.246C75.6658 12.075 75.5671 11.9039 75.4027 11.8581C75.2382 11.8153 75.0678 11.9161 75.023 12.0841C74.5416 13.978 74.0333 15.8903 73.5161 17.7964C73.7104 17.8789 73.8988 17.9766 74.0812 18.0897C74.6074 16.1438 75.1276 14.1858 75.6239 12.246Z" fill="#767676"/>
<path d="M69.1151 34.0227C69.0703 34.1907 69.1719 34.3648 69.3364 34.4107C69.3633 34.4168 69.3902 34.4198 69.4141 34.4198C69.5516 34.4198 69.6772 34.3251 69.7131 34.1816C69.9882 33.1033 70.2752 32.0189 70.5622 30.9346H69.9194C69.6473 31.967 69.3782 32.9964 69.1151 34.0227Z" fill="#767676"/>
<path d="M88.4905 22.7266L91.0229 19.9898C91.1395 19.8616 91.1365 19.663 91.0109 19.5409C90.8854 19.4217 90.691 19.4278 90.5714 19.5531L88.039 22.2898C87.9224 22.4181 87.9254 22.6166 88.051 22.7388C88.1108 22.7968 88.1885 22.8243 88.2633 22.8243C88.347 22.8274 88.4307 22.7938 88.4905 22.7266Z" fill="#767676"/>
<path d="M80.8013 14.1672C80.6429 14.1031 80.4605 14.1825 80.3977 14.3444C80.1107 15.0867 79.7729 15.7984 79.4141 16.5529C79.157 17.0966 78.8909 17.6587 78.6457 18.2299C78.577 18.3918 78.6487 18.5781 78.8072 18.6484C78.849 18.6667 78.8909 18.6759 78.9327 18.6759C79.0523 18.6759 79.1659 18.6056 79.2168 18.4865C79.4559 17.9275 79.719 17.3716 79.9732 16.834C80.32 16.1008 80.6788 15.3464 80.9747 14.5827C81.0375 14.4177 80.9598 14.2314 80.8013 14.1672Z" fill="#767676"/>
<path d="M90.0935 34.2212C90.1473 34.3311 90.2579 34.3953 90.3715 34.3953C90.4193 34.3953 90.4672 34.3831 90.512 34.3617L97.9956 30.5192C98.1481 30.4397 98.2108 30.2504 98.1331 30.0946C98.0554 29.9388 97.87 29.8746 97.7175 29.9541L90.234 33.7966C90.0755 33.876 90.0157 34.0654 90.0935 34.2212Z" fill="#767676"/>
<path d="M77.6738 34.356C77.7335 34.414 77.8083 34.4415 77.883 34.4415C77.9668 34.4415 78.0505 34.4079 78.1103 34.3407L85.9705 25.6564C86.0871 25.5281 86.0782 25.3265 85.9526 25.2073C85.827 25.0882 85.6297 25.0974 85.5131 25.2256L77.6528 33.91C77.5392 34.0352 77.5482 34.2369 77.6738 34.356Z" fill="#767676"/>
<path d="M71.5456 33.989C71.4769 34.1509 71.5486 34.3372 71.7071 34.4075C71.7489 34.4258 71.7908 34.435 71.8327 34.435C71.9523 34.435 72.0659 34.3647 72.1167 34.2456C72.6609 32.9748 73.2379 31.7162 73.818 30.4698C73.5519 30.6104 73.2678 30.7234 72.9748 30.8028C72.4875 31.8537 72.0061 32.9167 71.5456 33.989Z" fill="#767676"/>
<path d="M78.4816 20.1149C78.5444 19.953 78.4666 19.7667 78.3082 19.7025C78.1497 19.6384 77.9673 19.7178 77.9045 19.8797C77.4022 21.1717 76.8461 22.4668 76.2661 23.7527V25.2555C77.0495 23.5573 77.8119 21.8376 78.4816 20.1149Z" fill="#767676"/>
<path d="M62.0567 10.7554C62.0387 10.5813 61.8863 10.4592 61.7129 10.4744C61.5424 10.4928 61.4198 10.6516 61.4378 10.8257C61.68 13.025 61.9042 15.2732 62.1225 17.4725H62.7473C62.5291 15.2549 62.3018 12.9792 62.0567 10.7554Z" fill="#767676"/>
<path d="M64.0278 34.1296C64.0518 34.2885 64.1833 34.3985 64.3358 34.3985C64.3507 34.3985 64.3657 34.3985 64.3836 34.3954C64.5541 34.371 64.6707 34.2091 64.6437 34.0349C64.4943 33.0116 64.3537 31.976 64.2192 30.9374H63.5913C63.7288 32.0066 63.8724 33.0727 64.0278 34.1296Z" fill="#767676"/>
<path d="M61.4514 34.0409C61.4932 34.1784 61.6158 34.2639 61.7474 34.2639C61.7773 34.2639 61.8072 34.2608 61.8401 34.2486C62.0045 34.1967 62.0972 34.0195 62.0464 33.8515L61.1674 30.9346H60.5186L61.4514 34.0409Z" fill="#767676"/>
<path d="M56.463 16.7273C56.4929 16.7273 56.5228 16.7242 56.5557 16.712C56.7201 16.6601 56.8128 16.4829 56.762 16.3149L55.3867 11.7513C55.3359 11.5833 55.1655 11.4917 54.998 11.5406C54.8336 11.5925 54.7409 11.7697 54.7918 11.9377L56.167 16.5013C56.2089 16.6387 56.3315 16.7273 56.463 16.7273Z" fill="#767676"/>
<path d="M58.0289 34.2334C58.0857 34.3373 58.1904 34.3954 58.301 34.3954C58.3518 34.3954 58.4026 34.3831 58.4535 34.3556C58.603 34.2701 58.6568 34.0776 58.5731 33.9249C58.0259 32.9199 57.4818 31.9241 56.9376 30.9374H56.2261C56.821 32.0249 57.422 33.1215 58.0289 34.2334Z" fill="#767676"/>
<path d="M51.6488 21.4623C50.2884 19.0643 48.955 16.7426 47.6514 14.5065C47.5647 14.3568 47.3734 14.308 47.2269 14.3965C47.0804 14.4851 47.0295 14.6807 47.1192 14.8303C48.5723 17.323 50.0642 19.9288 51.589 22.6261V22.226C51.589 21.9663 51.6129 21.7128 51.6488 21.4623Z" fill="#767676"/>
<path d="M42.7123 27.2168C42.6017 27.3513 42.6167 27.5498 42.7452 27.6628L50.3722 34.3435C50.432 34.3954 50.5038 34.4198 50.5755 34.4198C50.6622 34.4198 50.7489 34.3832 50.8117 34.3098C50.9223 34.1754 50.9074 33.9769 50.7788 33.8639L43.1518 27.1833C43.0203 27.0672 42.8229 27.0824 42.7123 27.2168Z" fill="#767676"/>
<path d="M37.0631 21.4221C36.9375 21.303 36.7402 21.3091 36.6236 21.4374C36.5069 21.5657 36.5129 21.7673 36.6385 21.8864L40.597 25.6835C40.6568 25.7416 40.7345 25.7691 40.8093 25.7691C40.893 25.7691 40.9737 25.7355 41.0365 25.6683C41.1531 25.54 41.1472 25.3383 41.0216 25.2192L37.0631 21.4221Z" fill="#767676"/>
<path d="M31.1999 31.756C31.0414 31.6858 30.859 31.7591 30.7902 31.921C30.7215 32.0829 30.7932 32.2692 30.9517 32.3395L35.6697 34.432C35.7086 34.4503 35.7504 34.4595 35.7923 34.4595C35.9119 34.4595 36.0255 34.3892 36.0763 34.267C36.1451 34.1051 36.0733 33.9188 35.9149 33.8485L31.1999 31.756Z" fill="#767676"/>
<path d="M66.6574 34.0777C66.6335 34.2518 66.7501 34.4106 66.9205 34.4351C66.9354 34.4381 66.9504 34.4381 66.9653 34.4381C67.1178 34.4381 67.2494 34.3251 67.2733 34.1663C67.4228 33.0911 67.5394 32.0128 67.641 30.9346H67.0162C66.9175 31.9853 66.8009 33.0361 66.6574 34.0777Z" fill="#767676"/>
<path d="M69.1561 10.4411C68.9917 10.4289 68.8332 10.5541 68.8182 10.7282L68.4236 15.047C68.4086 15.2211 68.5342 15.3769 68.7046 15.3921C68.7136 15.3921 68.7256 15.3921 68.7345 15.3921C68.893 15.3921 69.0275 15.27 69.0425 15.105L69.4372 10.7863C69.4521 10.6122 69.3265 10.4564 69.1561 10.4411Z" fill="#767676"/>
<path d="M42.2457 17.4238L41.9437 17.0389C41.8361 16.9014 41.6417 16.88 41.5072 16.99C41.3726 17.1 41.3517 17.2985 41.4593 17.436L41.7613 17.8209C42.2546 18.4471 42.7659 19.0947 43.2742 19.7117C43.3369 19.785 43.4236 19.8247 43.5133 19.8247C43.5851 19.8247 43.6539 19.8003 43.7137 19.7514C43.8452 19.6384 43.8632 19.4399 43.7525 19.3054C43.2473 18.6915 42.739 18.0469 42.2457 17.4238Z" fill="#767676"/>
<path d="M54.9326 34.3185C54.9954 34.3918 55.0821 34.4315 55.1718 34.4315C55.2436 34.4315 55.3123 34.4071 55.3721 34.3582C55.5037 34.2452 55.5216 34.0467 55.411 33.9123C52.9533 30.9218 50.4748 27.7817 48.0769 24.7454L46.6507 22.9401C46.5431 22.8027 46.3488 22.7813 46.2142 22.8913C46.0797 23.0012 46.0587 23.1998 46.1664 23.3372L47.5925 25.1425C49.9904 28.1788 52.469 31.322 54.9326 34.3185Z" fill="#767676"/>
<path d="M38.152 29.786C38.0623 29.9356 38.1041 30.1311 38.2506 30.2227L44.7924 34.3979C44.8432 34.4315 44.9 34.4468 44.9568 34.4468C45.0615 34.4468 45.1601 34.3948 45.2199 34.2971C45.3096 34.1474 45.2678 33.952 45.1213 33.8603L38.5825 29.6852C38.436 29.5936 38.2447 29.6363 38.152 29.786Z" fill="#767676"/>
<path d="M5.4013 43.5042C5.46109 43.2568 5.73615 42.8811 6.3102 42.5909C6.95899 42.1938 7.87089 41.9739 8.87248 41.9739C9.11765 41.9739 9.36581 41.9861 9.60799 42.0136C11.4557 42.1816 12.7802 43.0552 13.2197 43.7822L13.2705 43.8555L17.4652 41.0361L17.4443 41.0055C16.0152 38.7542 13.2615 37.2269 10.0834 36.9184C9.69767 36.8879 9.29705 36.8573 8.90239 36.8573C7.09056 36.8573 5.3684 37.2819 3.92133 38.0822C1.89123 39.1941 0.611586 41.0147 0.405288 43.0735C0.0195998 47.2279 3.34728 50.3864 8.68412 50.9362C10.2089 51.089 11.3122 51.4525 11.9819 52.0329C12.4663 52.5277 12.4663 52.9951 12.4393 53.1936C12.4154 53.5083 12.0537 53.9115 11.5424 54.1894C10.8637 54.5621 9.9578 54.7698 8.99507 54.7698C8.74991 54.7698 8.49875 54.7576 8.25658 54.7301C6.43876 54.5652 5.09036 53.6946 4.60302 52.9431L4.5761 52.8973L0.375397 55.674L0.420251 55.7382C1.84939 57.9894 4.603 59.5168 7.78418 59.8253C8.15193 59.8558 8.54659 59.8864 8.96217 59.8864C10.7381 59.8864 12.4962 59.4618 13.9074 58.6951C15.9674 57.5343 17.25 55.7168 17.4264 53.7007C17.8121 49.4425 14.5741 46.3573 9.17745 45.838C7.81708 45.6853 5.27572 45.0163 5.39531 43.5531L5.3983 43.5287L5.4013 43.5042ZM4.67776 46.3603C5.68234 47.1943 7.17427 47.7288 8.99208 47.9091C12.3048 48.239 15.7312 49.8732 15.3993 53.4746C15.2707 54.7973 14.4067 55.9917 12.9626 56.8348C11.8563 57.4488 10.4362 57.7848 8.96517 57.7848C8.62432 57.7848 8.30143 57.7848 7.97853 57.7512C6.43876 57.5862 4.99767 57.0883 3.92432 56.346L3.55658 56.0925L4.36681 55.5396L4.53126 55.6465C5.48203 56.2666 6.74074 56.6729 8.0742 56.7981C8.34927 56.8287 8.64227 56.8592 8.96816 56.8592C10.2538 56.8592 11.5215 56.5568 12.5201 56.0161C13.707 55.3197 14.3917 54.4063 14.4993 53.3861C14.586 52.3689 14.1794 51.3211 13.3901 50.5147C12.4334 49.5983 10.9564 49.0454 8.87847 48.8316C6.47465 48.6086 4.47445 47.7136 3.38616 46.3787C2.6686 45.4959 2.36064 44.4512 2.46828 43.2751C2.56694 41.9494 3.45492 40.7337 4.902 39.9425C6.00824 39.298 7.39252 38.9559 8.90836 38.9559C9.2492 38.9559 9.57211 38.9558 9.89502 38.9894C11.4019 39.1544 12.84 39.6523 13.9462 40.3946L14.3439 40.6604L13.4708 41.198L13.3154 41.0972C12.3556 40.4862 11.1089 40.0647 9.80231 39.912C9.50931 39.8814 9.21631 39.8814 8.90536 39.8814C7.50314 39.8814 6.27731 40.1838 5.3385 40.7611C4.15453 41.3812 3.45493 42.3007 3.37121 43.3546C3.25461 44.5184 3.70906 45.557 4.67776 46.3603Z" fill="#767676"/>
<path d="M25.6131 59.8832H30.7527V42.1387H36.3049V36.8541H20.0879V42.1387H25.6102V59.8832H25.6131ZM22.1778 39.976V39.0504H34.1911V39.976H28.6389V57.7205H27.733V39.976H22.1778Z" fill="#767676"/>
<path d="M42.5044 52.9797H51.3573L47.1147 41.036L42.5044 52.9797ZM44.4926 51.5746L47.0789 44.9521L49.402 51.5746H44.4926Z" fill="#767676"/>
<path d="M48.8277 36.8541H45.4791L36.6143 59.8832H42.1125L43.5925 56.068H50.2388L51.5663 59.8832H57.0377L48.8277 36.8541ZM51.6979 53.9052H42.1454L40.6655 57.7205H39.6818L46.9202 38.9863H47.3626L54.027 57.7205H53.0523L51.6979 53.9052Z" fill="#767676"/>
<path d="M67.5007 59.8832V42.1387H73.0528V36.8541H56.8359V42.1387H62.3581V59.8832H67.5007ZM58.9228 39.976V39.0504H70.936V39.976H65.3839V57.7205H64.4779V39.976H58.9228Z" fill="#767676"/>
<path d="M75.9937 59.8832H81.1033V36.8541H75.9937V59.8832ZM78.0806 38.9863H79.0164V57.7541H78.0806V38.9863Z" fill="#767676"/>
<path d="M106.498 48.3369C106.498 41.9864 101.427 36.8241 95.196 36.8241C88.9801 36.8241 83.9243 41.9894 83.9243 48.3369C83.9243 54.7027 88.9801 59.8833 95.196 59.8833C101.427 59.8833 106.498 54.7057 106.498 48.3369ZM86.0112 48.3369C86.0112 43.1624 90.1312 38.9531 95.196 38.9531C100.276 38.9531 104.411 43.1624 104.411 48.3369C104.411 53.5297 100.276 57.7511 95.196 57.7511C90.1312 57.7511 86.0112 53.5297 86.0112 48.3369Z" fill="#767676"/>
<path d="M103.533 48.3366C103.533 43.6569 99.7924 39.8478 95.194 39.8478C90.6136 39.8478 86.8853 43.6569 86.8853 48.3366C86.8853 53.0346 90.6136 56.8559 95.194 56.8559C99.7924 56.8589 103.533 53.0346 103.533 48.3366ZM95.194 55.4813C91.3551 55.4813 88.2307 52.277 88.2307 48.3366C88.2307 44.4144 91.3551 41.2224 95.194 41.2224C99.0509 41.2224 102.187 44.4144 102.187 48.3366C102.187 52.277 99.0509 55.4813 95.194 55.4813Z" fill="#767676"/>
<path d="M123.475 36.8241V49.3785L114.234 36.8241H109.961V59.8833H115.101V46.7638L124.803 59.8833H128.645V36.8241H123.475ZM126.501 57.6901H125.837L113.02 40.3308V57.6901H112.084V38.9867H113.181L125.598 55.8115V38.9867H126.504V57.6901H126.501Z" fill="#767676"/>
<path d="M27.8606 66.4174L27.6543 65.9775C27.6125 65.8889 27.5138 65.8522 27.4271 65.895L25.9621 66.6159L25.6212 65.8919L27.0863 65.171C27.173 65.1283 27.2059 65.0275 27.167 64.9389L26.9607 64.499C26.9188 64.4104 26.8202 64.3738 26.7334 64.4165L22.733 66.3868C22.6462 66.4296 22.6104 66.5304 22.6522 66.619L22.8585 67.0588C22.9004 67.1474 22.9991 67.1841 23.0858 67.1413L24.9246 66.2371L25.2654 66.9611L23.4266 67.8653C23.3399 67.908 23.307 68.0088 23.3459 68.0974L23.5522 68.5373C23.5911 68.6198 23.6927 68.6625 23.7794 68.6198L27.7799 66.6495C27.8666 66.6067 27.8965 66.4968 27.8606 66.4174Z" fill="#767676"/>
<path d="M28.6551 67.9017L28.4219 67.474C28.3741 67.3884 28.2664 67.361 28.1827 67.4098L24.3108 69.6154C24.2271 69.6643 24.1972 69.7682 24.245 69.8537L24.4782 70.2814C24.526 70.3669 24.6277 70.3975 24.7114 70.3486L28.5833 68.143C28.6671 68.0941 28.7 67.9872 28.6551 67.9017Z" fill="#767676"/>
<path d="M28.7964 71.9827C28.8772 71.9308 28.9011 71.8239 28.8473 71.7414L28.339 70.9289C28.2882 70.8464 28.1835 70.8219 28.1028 70.8769L27.747 71.1091C27.6663 71.161 27.6364 71.271 27.6902 71.3535L27.8487 71.607L26.7992 72.2912C26.7185 72.3432 26.6109 72.3157 26.5601 72.2332L26.285 71.7933C26.2372 71.717 26.2551 71.6039 26.3358 71.552L28.7546 69.9758C28.8293 69.9269 28.9429 69.9514 28.9908 70.0277L29.2658 70.4676C29.3167 70.5501 29.2927 70.6661 29.218 70.715L28.9878 70.8647C28.9071 70.9166 28.8831 71.0235 28.9369 71.106L29.1941 71.5184C29.2449 71.6009 29.3495 71.6253 29.4303 71.5703L29.7233 71.3779C30.1329 71.1121 30.2465 70.5562 29.9894 70.1438L29.5857 69.4962C29.3256 69.0777 28.7875 68.9586 28.3779 69.2244L25.8216 70.8922C25.418 71.1549 25.2984 71.7139 25.5555 72.1263L25.9591 72.7739C26.2162 73.1862 26.7634 73.3084 27.167 73.0457L28.7964 71.9827Z" fill="#767676"/>
<path d="M32.2312 73.3452L31.9442 72.9542C31.8874 72.8748 31.7827 72.8626 31.705 72.9206L30.4074 73.9224L29.935 73.281L31.2326 72.2792C31.3074 72.2212 31.3223 72.1142 31.2655 72.0348L30.9785 71.6439C30.9217 71.5645 30.817 71.5522 30.7393 71.6103L27.1934 74.3439C27.1186 74.402 27.1037 74.5089 27.1605 74.5883L27.4475 74.9793C27.5043 75.0587 27.6089 75.074 27.6867 75.0129L29.3161 73.7575L29.7885 74.3989L28.1591 75.6574C28.0813 75.7154 28.0694 75.8253 28.1262 75.9017L28.4132 76.2927C28.467 76.366 28.5747 76.3874 28.6524 76.3263L32.1983 73.5926C32.2761 73.5315 32.285 73.4185 32.2312 73.3452Z" fill="#767676"/>
<path d="M33.4006 79.7205L35.0898 78.0434C35.4725 77.6646 35.4815 77.0415 35.1107 76.6505L34.7101 76.2289C34.3394 75.8379 33.7294 75.8287 33.3467 76.2075L31.2927 78.245C30.916 78.6208 30.907 79.2409 31.2778 79.6319L32.2196 80.6216C32.2854 80.6919 32.396 80.698 32.4647 80.6308L32.7847 80.3162C32.8534 80.249 32.8504 80.1359 32.7936 80.0748L32.6023 79.8732C32.8684 79.9832 33.1853 79.9343 33.4006 79.7205ZM32.3422 79.6013L31.8668 79.1004C31.801 79.0301 31.801 78.911 31.8638 78.8499L33.9178 76.8124C33.9866 76.7452 34.1032 76.7452 34.1689 76.8154L34.5217 77.1851C34.5875 77.2553 34.5875 77.3744 34.5188 77.4416L32.3422 79.6013Z" fill="#767676"/>
<path d="M38.1062 79.4879L37.7475 79.1641C37.6757 79.0999 37.5651 79.1121 37.5023 79.1855L35.0955 81.9867C35.0327 82.06 34.9221 82.063 34.8503 81.9989L34.4706 81.6568C34.3989 81.5926 34.3869 81.4796 34.4497 81.4063L36.8565 78.6081C36.9193 78.5348 36.9163 78.4218 36.8445 78.3576L36.4858 78.0338C36.414 77.9697 36.3034 77.9819 36.2406 78.0552L33.78 80.9175C33.4631 81.2841 33.4989 81.8553 33.8607 82.1791L34.4258 82.6862C34.7846 83.01 35.3437 82.9703 35.6606 82.6037L38.1212 79.7414C38.178 79.6651 38.178 79.552 38.1062 79.4879Z" fill="#767676"/>
<path d="M40.1817 81.1313L39.3625 80.502C39.2907 80.447 39.195 80.4531 39.1293 80.5173L36.3936 83.2361C36.3637 83.2666 36.3517 83.2819 36.3338 83.3033L35.972 83.7951C35.9152 83.8745 35.9301 83.9814 36.0049 84.0395L36.3876 84.3327C36.4653 84.3908 36.57 84.3755 36.6268 84.2991L37.0005 83.792L37.733 84.3541L37.3593 84.8612C37.3025 84.9406 37.3174 85.0475 37.3892 85.1025L37.7779 85.3988C37.8556 85.4569 37.9603 85.4416 38.0171 85.3652L38.3788 84.8734C38.3968 84.852 38.4087 84.8337 38.4267 84.7971L40.2265 81.3604C40.2624 81.2901 40.2534 81.1863 40.1817 81.1313ZM38.1247 83.6637L37.5447 83.2177L39.2817 81.4704L38.1247 83.6637Z" fill="#767676"/>
<path d="M40.6563 86.3974L39.855 85.8628L41.9449 82.5793C41.9957 82.4968 41.9748 82.3899 41.8941 82.338L41.4934 82.0722C41.4127 82.0203 41.3081 82.0417 41.2572 82.1241L38.8355 85.93C38.7817 86.0125 38.8056 86.1194 38.8863 86.1714L40.2317 87.0663C40.3125 87.1182 40.4171 87.0969 40.4679 87.0144L40.7071 86.6387C40.758 86.5562 40.737 86.4493 40.6563 86.3974Z" fill="#767676"/>
<path d="M44.1384 83.7491L43.7258 83.5048C43.6421 83.4559 43.5375 83.4895 43.4896 83.575L41.2682 87.4939C41.2204 87.5795 41.2473 87.6833 41.331 87.7322L41.7436 87.9765C41.8273 88.0254 41.929 87.9979 41.9768 87.9124L44.1982 83.9935C44.243 83.908 44.2191 83.798 44.1384 83.7491Z" fill="#767676"/>
<path d="M46.6744 85.8328L46.8777 85.4235C46.9195 85.3349 46.8807 85.2311 46.8029 85.1883L45.03 84.2689C44.9462 84.2231 44.8446 84.2597 44.7997 84.3453L44.5964 84.7546C44.5546 84.8432 44.5875 84.944 44.6712 84.9898L45.1884 85.2586L43.4603 88.7377C43.4154 88.8232 43.4573 88.9302 43.535 88.9729L43.9626 89.1929C44.0493 89.2356 44.148 89.202 44.1928 89.1165L45.9209 85.6373L46.4442 85.9092C46.5249 85.9489 46.6325 85.9184 46.6744 85.8328Z" fill="#767676"/>
<path d="M49.4983 87.3232L49.7614 86.6848C49.7973 86.5962 49.7584 86.4954 49.6687 86.4557L49.2292 86.2663C49.1395 86.2296 49.0439 86.2693 49.005 86.361L48.8047 86.8497C48.7837 86.9016 48.7508 86.9475 48.712 86.9841L47.9017 87.7111L47.8419 86.6115C47.8359 86.5565 47.8449 86.4984 47.8658 86.4465L48.0662 85.9577C48.102 85.8661 48.0632 85.7683 47.9735 85.7286L47.531 85.5392C47.4413 85.5026 47.3456 85.5423 47.3067 85.6309L47.0436 86.2693C47.0137 86.3396 47.0048 86.419 47.0018 86.4954L47.1184 88.5207L46.4337 90.1824C46.3978 90.2741 46.4367 90.3718 46.5264 90.4115L46.9659 90.6009C47.0556 90.6376 47.1513 90.5979 47.1901 90.5062L47.8718 88.8445L49.3638 87.5095C49.4266 87.4576 49.4684 87.3935 49.4983 87.3232Z" fill="#767676"/>
<path d="M49.6917 90.7932L49.2611 90.6374C49.1714 90.6038 49.0787 90.6465 49.0458 90.7382L48.8904 91.1842C48.8575 91.2759 48.9053 91.3675 48.998 91.4011L49.1206 91.447L48.989 91.5753C48.9591 91.6028 48.9322 91.6364 48.9173 91.6761L48.8754 91.8013C48.8575 91.8533 48.8874 91.9174 48.9322 91.9327L49.1505 92.0121C49.1953 92.0274 49.2551 91.9999 49.2761 91.9449L49.288 91.9113C49.3 91.8777 49.3299 91.8533 49.3418 91.841L49.5392 91.6455C49.5631 91.618 49.581 91.5875 49.593 91.5539L49.7843 91.0009C49.8112 90.9093 49.7694 90.8207 49.6917 90.7932Z" fill="#767676"/>
<path d="M54.4644 92.2138L53.5376 91.9786L54.4644 88.1786C54.4883 88.0839 54.4315 87.9892 54.3388 87.9679L53.8754 87.8487C53.7827 87.8243 53.693 87.8823 53.6691 87.977L52.5958 92.3818C52.5719 92.4765 52.6287 92.5681 52.7214 92.5925L54.279 92.9896C54.3717 93.0141 54.4614 92.956 54.4853 92.8613L54.5899 92.4276C54.6109 92.3298 54.557 92.2382 54.4644 92.2138Z" fill="#767676"/>
<path d="M57.829 88.7161L57.0906 88.5847C56.6122 88.4992 56.1607 88.8321 56.077 89.3178L55.5598 92.3634C55.4761 92.8522 55.793 93.3104 56.2714 93.3959L57.0098 93.5273C57.4822 93.6097 57.9367 93.289 58.0204 92.8002L58.5376 89.7547C58.6213 89.2659 58.2984 88.7985 57.829 88.7161ZM57.2281 92.5681C57.2132 92.6658 57.1175 92.733 57.0218 92.7147L56.5225 92.6261C56.4268 92.6108 56.3611 92.5131 56.379 92.4153L56.8693 89.5286C56.8873 89.4309 56.9799 89.3789 57.0726 89.3942L57.5719 89.4828C57.6676 89.4981 57.7364 89.5836 57.7184 89.6783L57.2281 92.5681Z" fill="#767676"/>
<path d="M62.7913 89.2657L62.1934 89.2138C62.1306 89.2077 62.0797 89.2535 62.0768 89.3146L62.0289 89.9195C62.0259 89.9683 62.0229 89.9958 62.011 90.0508L61.6701 91.8012L61.4728 89.2505C61.4638 89.1924 61.419 89.1466 61.3652 89.1435L60.8479 89.1008C60.7941 89.0946 60.7433 89.1344 60.7313 89.1894L60.1274 91.6729L60.0646 89.8889C60.0616 89.8339 60.0646 89.8064 60.0676 89.7575L60.1154 89.1527C60.1214 89.0916 60.0765 89.0366 60.0167 89.0336L59.4188 88.9816C59.359 88.9755 59.3052 89.0213 59.3022 89.0824L59.2484 89.7514C59.2454 89.785 59.2424 89.8278 59.2454 89.892L59.4696 93.735C59.4756 93.8266 59.5384 93.8938 59.6281 93.903L60.1603 93.9488C60.241 93.9549 60.3217 93.8999 60.3367 93.8083L60.9645 90.955L61.126 93.8755C61.132 93.9671 61.1947 94.0343 61.2844 94.0435L61.8077 94.0893C61.8974 94.0954 61.9691 94.0404 61.9901 93.9518L62.8272 90.1974C62.8392 90.1363 62.8422 90.0936 62.8451 90.06L62.899 89.391C62.896 89.3238 62.8511 89.2718 62.7913 89.2657Z" fill="#767676"/>
<path d="M66.7162 89.2078L65.5412 89.2658C65.4455 89.272 65.3738 89.3514 65.3797 89.4491L65.598 93.9821C65.604 94.0799 65.6817 94.1532 65.7774 94.147L66.2558 94.1226C66.3514 94.1165 66.4232 94.0371 66.4172 93.9393L66.3186 91.9111L66.8448 91.8836C67.4397 91.8531 67.9062 91.3277 67.8763 90.7137L67.8553 90.2677C67.8254 89.6538 67.3082 89.1773 66.7162 89.2078ZM66.8029 91.0406L66.2767 91.068L66.2259 90.0356L66.7521 90.0081C66.9016 90.002 67.0242 90.1211 67.0301 90.2739L67.0541 90.7534C67.063 90.9031 66.9524 91.0314 66.8029 91.0406Z" fill="#767676"/>
<path d="M71.2757 92.5372L70.5223 91.4499C70.896 91.233 71.1322 90.7963 71.0724 90.3259L71.0186 89.8891C70.9438 89.2783 70.4027 88.8415 69.8047 88.9178L68.6327 89.0675C68.543 89.0797 68.4713 89.1653 68.4832 89.263L69.0304 93.7651C69.0423 93.8628 69.132 93.927 69.2217 93.9178L69.6971 93.8567C69.7928 93.8445 69.8585 93.759 69.8466 93.6612L69.5895 91.5629L70.4834 92.8427C70.5283 92.9221 70.5492 92.9954 70.5582 93.0717L70.618 93.5574C70.6299 93.6551 70.7196 93.7193 70.8153 93.7071L71.2907 93.646C71.3863 93.6337 71.4431 93.5482 71.4312 93.4535L71.3475 92.7602C71.3415 92.6839 71.3176 92.6014 71.2757 92.5372ZM70.032 90.7474L69.5028 90.8146L69.3772 89.7822L69.9064 89.715C70.0499 89.6967 70.1844 89.7975 70.2024 89.9502L70.2592 90.4297C70.2801 90.5886 70.1755 90.7291 70.032 90.7474Z" fill="#767676"/>
<path d="M72.221 88.5268L71.7515 88.6154C71.6588 88.6338 71.599 88.7285 71.6169 88.8262L72.4183 93.283C72.4362 93.3808 72.523 93.4419 72.6186 93.4235L73.0881 93.335C73.1808 93.3166 73.2436 93.228 73.2256 93.1333L72.4243 88.6765C72.4063 88.5788 72.3166 88.5085 72.221 88.5268Z" fill="#767676"/>
<path d="M76.2313 90.4726C76.2074 90.3779 76.1147 90.3138 76.022 90.3382L75.5586 90.4543C75.4659 90.4787 75.4121 90.5764 75.436 90.6711L75.6902 91.7372C75.7141 91.8319 75.6513 91.9266 75.5646 91.948L75.0653 92.0732C74.9726 92.0976 74.8739 92.0426 74.853 91.948L74.1713 89.1011C74.1474 89.0064 74.2102 88.9117 74.3029 88.8872L74.8022 88.762C74.8889 88.7406 74.9845 88.7956 75.0085 88.8903L75.1699 89.5623C75.1938 89.657 75.2865 89.7211 75.3792 89.6967L75.8426 89.5806C75.9353 89.5562 75.9891 89.4585 75.9652 89.3638L75.7858 88.6184C75.6692 88.1358 75.1998 87.8456 74.7274 87.9617L73.9979 88.145C73.5255 88.2641 73.2415 88.7437 73.3551 89.2263L74.0756 92.2381C74.1892 92.7116 74.6676 93.011 75.134 92.8949L75.8636 92.7116C76.336 92.5925 76.62 92.1068 76.5064 91.6303L76.2313 90.4726Z" fill="#767676"/>
<path d="M79.4211 90.9825C79.3912 90.8909 79.2985 90.8389 79.2058 90.8695L78.3029 91.1658L77.8634 89.7637L78.4344 89.5743C78.5241 89.5438 78.5749 89.4491 78.545 89.3544L78.4165 88.942C78.3866 88.8504 78.2939 88.7985 78.2012 88.829L77.6302 89.0153L77.3192 88.0256L78.2221 87.7293C78.3118 87.6988 78.3627 87.6041 78.3328 87.5094L78.1982 87.0848C78.1683 86.9932 78.0756 86.9412 77.983 86.9718L76.4552 87.4728C76.3655 87.5033 76.3146 87.598 76.3445 87.6927L77.7019 92.0119C77.7318 92.1035 77.8245 92.1555 77.9172 92.1249L79.445 91.624C79.5347 91.5934 79.5855 91.4987 79.5556 91.404L79.4211 90.9825Z" fill="#767676"/>
<path d="M81.2799 90.9884C81.2799 90.9518 81.274 90.9151 81.262 90.8846L81.0587 90.3379C81.0258 90.2463 80.9361 90.2065 80.8613 90.2371L80.4337 90.402C80.344 90.4356 80.2992 90.5303 80.3321 90.6219L80.4965 91.0648C80.5294 91.1564 80.6251 91.1931 80.7148 91.1595L80.8374 91.1137L80.8195 91.3C80.8135 91.3397 80.8135 91.3824 80.8284 91.4221L80.8733 91.5474C80.8912 91.5993 80.954 91.6268 80.9989 91.6115L81.2172 91.526C81.262 91.5076 81.2889 91.4466 81.271 91.3946L81.259 91.361C81.247 91.3275 81.253 91.2878 81.256 91.2725L81.2799 90.9884Z" fill="#767676"/>
<path d="M85.6003 86.7793C85.4717 86.5166 85.2564 86.3303 85.0023 86.2356C85.0352 86.0218 84.9993 85.808 84.8976 85.6033L84.6973 85.197C84.4282 84.6472 83.7735 84.4212 83.2353 84.6991L82.1739 85.2459C82.0872 85.2887 82.0543 85.3925 82.0991 85.4811L84.0964 89.5346C84.1382 89.6232 84.2399 89.6568 84.3266 89.611L85.4866 89.0153C86.0248 88.7404 86.2371 88.0684 85.965 87.5185L85.6003 86.7793ZM83.1067 85.6614L83.5881 85.4139C83.7166 85.3467 83.8811 85.4048 83.9498 85.5392L84.1621 85.9699C84.2279 86.1012 84.1711 86.2692 84.0425 86.3364L83.5612 86.5838L83.1067 85.6614ZM85.1279 88.2883L84.5478 88.5877L83.908 87.2894L84.488 86.9901C84.6166 86.9229 84.781 86.9809 84.8498 87.1184L85.2385 87.9095C85.3103 88.0531 85.2564 88.2211 85.1279 88.2883Z" fill="#767676"/>
<path d="M88.7616 86.4069C88.7137 86.3244 88.6091 86.2969 88.5284 86.3458L87.7151 86.8437L86.9737 85.579L87.4909 85.2644C87.5716 85.2155 87.5985 85.1086 87.5507 85.0261L87.3325 84.6534C87.2816 84.5709 87.18 84.5435 87.0993 84.5923L86.582 84.907L86.0588 84.015L86.875 83.5171C86.9558 83.4682 86.9827 83.3613 86.9348 83.2788L86.7106 82.8969C86.6628 82.8145 86.5581 82.787 86.4774 82.8359L85.0991 83.679C85.0184 83.7278 84.9915 83.8348 85.0393 83.9172L87.3205 87.809C87.3683 87.8915 87.473 87.919 87.5537 87.8701L88.932 87.027C89.0127 86.9781 89.0396 86.8712 88.9918 86.7887L88.7616 86.4069Z" fill="#767676"/>
<path d="M90.868 83.2998C90.5181 82.7897 89.8424 82.6705 89.3461 83.0249L89.089 83.2082C88.9634 83.2907 88.796 83.2662 88.7093 83.141L88.4701 82.7927C88.3834 82.6675 88.4192 82.4964 88.5418 82.4109L88.7989 82.2276C88.9215 82.139 89.089 82.1634 89.1757 82.2917L89.2594 82.4109C89.3132 82.4903 89.4179 82.5086 89.4986 82.4537L89.8903 82.1726C89.968 82.1176 89.9859 82.0107 89.9321 81.9282L89.8664 81.8305C89.5225 81.3264 88.8408 81.2012 88.3445 81.5555L88.0873 81.7388C87.594 82.0901 87.4744 82.7927 87.8182 83.2937L88.0425 83.6206C88.3863 84.1246 89.065 84.2346 89.5614 83.8894L89.8185 83.7061C89.9411 83.6175 90.1085 83.645 90.1952 83.7703L90.7035 84.5126C90.7902 84.6379 90.7603 84.812 90.6378 84.9006L90.3806 85.0839C90.258 85.1725 90.0876 85.1419 90.0009 85.0166L89.66 84.5187C89.6062 84.4393 89.5016 84.421 89.4209 84.476L89.0292 84.757C88.9514 84.812 88.9335 84.9189 88.9873 85.0014L89.3102 85.4688C89.6541 85.9728 90.3417 86.095 90.8321 85.7437L91.0892 85.5604C91.5826 85.2091 91.7022 84.5065 91.3583 84.0055L90.868 83.2998Z" fill="#767676"/>
<path d="M91.4002 80.1784L91.8546 79.7996C91.9234 79.7415 91.9383 79.6285 91.8785 79.5552L91.5945 79.1978C91.5347 79.1214 91.4241 79.1153 91.3553 79.1734L89.8156 80.4563C89.7409 80.5174 89.7319 80.6274 89.7917 80.7007L90.0757 81.0581C90.1355 81.1345 90.2431 81.1437 90.3149 81.0826L90.7634 80.7068L93.1761 83.728C93.2359 83.8043 93.3465 83.8104 93.4153 83.7524L93.786 83.4439C93.8607 83.3828 93.8697 83.2728 93.8099 83.1995L91.4002 80.1784Z" fill="#767676"/>
<path d="M96.9799 77.5115C96.9111 77.4443 96.8005 77.4412 96.7347 77.5115L96.4028 77.8628C96.3371 77.933 96.3431 78.0461 96.4118 78.1133L97.1832 78.877C97.2519 78.9442 97.2489 79.0602 97.1862 79.1244L96.8304 79.5001C96.7646 79.5704 96.654 79.5765 96.5852 79.5093L94.5223 77.4687C94.4535 77.4015 94.4565 77.2855 94.5223 77.2183L94.8781 76.8425C94.9409 76.7784 95.0515 76.7692 95.1202 76.8395L95.6076 77.3191C95.6763 77.3863 95.787 77.3893 95.8527 77.3191L96.1846 76.9678C96.2504 76.8975 96.2444 76.7845 96.1756 76.7173L95.6345 76.1827C95.2847 75.8375 94.7345 75.8467 94.3967 76.2041L93.8735 76.757C93.5357 77.1144 93.5446 77.6765 93.8944 78.0216L96.074 80.1783C96.4178 80.5173 96.9769 80.5082 97.3117 80.1569L97.8349 79.604C98.1728 79.2466 98.1578 78.6814 97.814 78.3393L96.9799 77.5115Z" fill="#767676"/>
<path d="M97.1641 73.2109C97.0894 73.1498 96.9817 73.1651 96.9249 73.2353L96.62 73.6111C96.5602 73.6874 96.5691 73.7943 96.6439 73.8585L97.8967 74.9185L97.3943 75.5355L96.1416 74.4755C96.0668 74.4144 95.9622 74.4236 95.8994 74.5L95.5944 74.8757C95.5346 74.9521 95.5436 75.059 95.6183 75.1201L99.0388 78.0129C99.1135 78.074 99.2182 78.0648 99.281 77.9884L99.586 77.6127C99.6458 77.5363 99.6368 77.4294 99.562 77.3683L97.9893 76.0365L98.4916 75.4194L100.064 76.7513C100.139 76.8124 100.244 76.8032 100.304 76.7268L100.608 76.3511C100.665 76.2808 100.659 76.1678 100.585 76.1067L97.1641 73.2109Z" fill="#767676"/>
<path d="M102.149 72.6487L99.6556 70.8954C99.255 70.6144 98.7049 70.7182 98.4328 71.1214L98.0052 71.7537C97.7302 72.1631 97.8348 72.719 98.2355 73L100.729 74.7534C101.13 75.0344 101.671 74.9336 101.946 74.5243L102.373 73.892C102.645 73.4888 102.55 72.9298 102.149 72.6487ZM101.656 73.5376L101.369 73.9622C101.315 74.0416 101.201 74.063 101.121 74.008L98.7557 72.3463C98.6779 72.2914 98.666 72.1814 98.7198 72.102L99.0068 71.6774C99.0607 71.598 99.1653 71.5674 99.243 71.6224L101.608 73.2841C101.692 73.3421 101.713 73.4582 101.656 73.5376Z" fill="#767676"/>
<path d="M103.752 71.4083L99.9822 69.0224C99.9015 68.9705 99.7909 68.9919 99.74 69.0744L99.4889 69.4898C99.4381 69.5723 99.468 69.6823 99.5487 69.7342L103.319 72.1201C103.4 72.172 103.504 72.1476 103.555 72.062L103.806 71.6466C103.86 71.5641 103.836 71.4572 103.752 71.4083Z" fill="#767676"/>
<path d="M104.871 67.905L103.848 67.3399C103.764 67.294 103.657 67.3215 103.612 67.4071L103.385 67.8378C103.34 67.9233 103.376 68.0302 103.459 68.0761L104.404 68.5984C104.488 68.6442 104.515 68.7542 104.473 68.8337L104.231 69.2949C104.186 69.3805 104.081 69.4171 103.995 69.3713L101.471 67.9753C101.388 67.9294 101.361 67.8195 101.405 67.7339L101.651 67.2727C101.692 67.1932 101.797 67.1566 101.881 67.2024L102.476 67.5323C102.56 67.5781 102.667 67.5506 102.712 67.4651L102.939 67.0344C102.984 66.9488 102.948 66.8419 102.865 66.7931L102.204 66.4265C101.776 66.1913 101.25 66.3501 101.02 66.7869L100.661 67.4621C100.431 67.8989 100.586 68.4365 101.014 68.6717L103.684 70.1472C104.105 70.3794 104.64 70.2175 104.868 69.7867L105.226 69.1116C105.457 68.6778 105.292 68.1372 104.871 67.905Z" fill="#767676"/>
<path d="M106.754 65.4552L106.356 65.2719C106.269 65.2322 106.171 65.2688 106.129 65.3574L105.737 66.2402L104.424 65.6323L104.673 65.0733C104.711 64.9847 104.676 64.8839 104.589 64.8411L104.203 64.664C104.117 64.6243 104.018 64.6609 103.976 64.7495L103.728 65.3085L102.801 64.8809L103.193 63.998C103.232 63.9094 103.196 63.8086 103.106 63.7659L102.708 63.5826C102.622 63.5429 102.523 63.5795 102.481 63.6681L101.82 65.1619C101.781 65.2505 101.817 65.3513 101.904 65.3941L105.949 67.2636C106.036 67.3033 106.135 67.2666 106.177 67.175L106.837 65.6812C106.879 65.5957 106.84 65.4949 106.754 65.4552Z" fill="#767676"/>
<path d="M22.8522 26.8839L26.7987 28.9608C26.8824 29.0066 26.9841 28.973 27.0289 28.8845L27.2472 28.4508C27.292 28.3622 27.2592 28.2614 27.1724 28.2156L25.4055 27.287L25.6447 26.8106C25.9167 26.2699 25.7044 25.5949 25.1693 25.3139L24.7806 25.1093C24.2454 24.8283 23.5847 25.0451 23.3126 25.5858L22.7744 26.6517C22.7326 26.7372 22.7654 26.8411 22.8522 26.8839ZM24.0122 25.9492C24.081 25.8118 24.2424 25.766 24.377 25.8362L24.7955 26.0561C24.9241 26.1233 24.9779 26.2852 24.9121 26.4226L24.67 26.8991L23.77 26.4257L24.0122 25.9492Z" fill="#767676"/>
<path d="M24.6575 23.4412L28.4217 25.8453C28.5025 25.8972 28.6101 25.8667 28.6579 25.7903L28.9121 25.3748C28.9629 25.2924 28.939 25.1855 28.8583 25.1335L27.1032 24.0124L28.637 24.1102C28.7237 24.1255 28.7955 24.153 28.8583 24.1957L29.2649 24.4554C29.3456 24.5073 29.4532 24.4768 29.5041 24.3943L29.7582 23.9788C29.809 23.8963 29.7821 23.7956 29.7014 23.7436L29.1214 23.374C29.0586 23.3343 28.9808 23.3007 28.9061 23.2946L27.6055 23.206C27.6773 22.7753 27.4919 22.311 27.1002 22.0605L26.7355 21.8283C26.2242 21.5014 25.5515 21.6572 25.2316 22.1765L24.6067 23.1999C24.5558 23.2762 24.5768 23.3893 24.6575 23.4412ZM25.8953 22.6012C25.97 22.4759 26.1345 22.4331 26.2631 22.5156L26.6637 22.7692C26.7953 22.8547 26.8371 23.0288 26.7594 23.151L26.4783 23.6123L25.6142 23.0624L25.8953 22.6012Z" fill="#767676"/>
<path d="M30.3062 22.8673C30.3839 22.9254 30.4886 22.9101 30.5454 22.8307L31.4962 21.511C31.553 21.4316 31.538 21.3247 31.4603 21.2667L31.1075 21.0009C31.0297 20.9428 30.9251 20.9581 30.8683 21.0376L30.3062 21.8196L29.1461 20.9459L29.5019 20.451C29.5587 20.3716 29.5438 20.2647 29.466 20.2067L29.1252 19.9501C29.0475 19.892 28.9428 19.9073 28.886 19.9867L28.5302 20.4816L27.711 19.8645L28.2731 19.0825C28.3299 19.0031 28.315 18.8962 28.2372 18.8382L27.8844 18.5724C27.8067 18.5144 27.7021 18.5296 27.6452 18.6091L26.6945 19.9287C26.6377 20.0081 26.6526 20.115 26.7304 20.1731L30.3062 22.8673Z" fill="#767676"/>
<path d="M31.4669 19.9742C31.5028 20.017 31.5386 20.0476 31.5536 20.0628L32.026 20.4996C32.0977 20.5638 32.2024 20.5577 32.2682 20.4844L32.5851 20.1178C32.6479 20.0445 32.6419 19.9376 32.5701 19.8704L32.1725 19.5099C32.1426 19.4824 32.1157 19.458 32.0918 19.4274L30.6357 17.7687L32.3668 18.9326C32.4386 18.9784 32.5343 18.9631 32.5881 18.899L32.9319 18.5019C32.9857 18.4408 32.9857 18.3461 32.9319 18.2789L31.5924 16.666L33.3834 17.9398C33.4193 17.9612 33.4432 17.9856 33.4761 18.0131L33.8737 18.3736C33.9455 18.4377 34.0531 18.4316 34.1159 18.3583L34.4328 17.9917C34.4926 17.9245 34.4896 17.8085 34.4179 17.7443L33.9365 17.3197C33.9216 17.3044 33.8857 17.2739 33.8408 17.2403L30.7015 15.1448C30.6297 15.0989 30.54 15.1111 30.4802 15.1784L30.1364 15.5755C30.0826 15.6396 30.0826 15.7313 30.1364 15.7985L31.6941 17.7382L29.6251 16.388C29.5534 16.3422 29.4637 16.3544 29.4039 16.4216L29.063 16.8126C29.0032 16.8798 29.0062 16.9745 29.0571 17.0417L31.4669 19.9742Z" fill="#767676"/>
<path d="M35.1676 17.0174C35.2334 17.0877 35.341 17.0907 35.4098 17.0205L35.7536 16.6814C35.8224 16.6142 35.8253 16.5042 35.7566 16.434L32.6712 13.1808C32.6054 13.1105 32.4948 13.1044 32.426 13.1716L32.0822 13.5107C32.0134 13.5779 32.0164 13.6909 32.0822 13.7612L35.1676 17.0174Z" fill="#767676"/>
<path d="M36.1625 15.05C36.4705 15.4227 37.0296 15.4716 37.3944 15.1569L37.9684 14.6621C38.3332 14.3475 38.381 13.7763 38.0731 13.4036L35.6662 10.4927C35.6034 10.4193 35.4928 10.4041 35.421 10.4652L35.0562 10.7798C34.9845 10.8439 34.9785 10.9569 35.0413 11.0303L37.3974 13.8771C37.4601 13.9504 37.4452 14.0634 37.3704 14.1275L36.9847 14.4605C36.913 14.5246 36.7994 14.5185 36.7396 14.4452L34.3835 11.5984C34.3207 11.5251 34.2101 11.5098 34.1383 11.5709L33.7736 11.8855C33.7018 11.9497 33.6958 12.0627 33.7586 12.136L36.1625 15.05Z" fill="#767676"/>
<path d="M38.8848 12.6645C38.9117 12.7134 38.9356 12.7531 38.9505 12.7715L39.3063 13.3091C39.3601 13.3885 39.4648 13.4099 39.5455 13.3549L39.9372 13.0769C40.0149 13.0219 40.0358 12.915 39.982 12.8356L39.6801 12.3866C39.6561 12.353 39.6382 12.3224 39.6203 12.2858L38.5977 10.3186L40.0029 11.8704C40.0598 11.9314 40.1584 11.9406 40.2242 11.8917L40.6518 11.5893C40.7205 11.5404 40.7414 11.4519 40.7056 11.3724L39.7817 9.47857L41.2198 11.1525C41.2497 11.183 41.2676 11.2105 41.2916 11.2472L41.5935 11.6962C41.6474 11.7757 41.752 11.797 41.8297 11.742L42.2244 11.4641C42.2961 11.4122 42.3231 11.3022 42.2662 11.2228L41.8985 10.6943C41.8865 10.676 41.8596 10.6363 41.8238 10.5935L39.2675 7.79546C39.2107 7.73437 39.118 7.72215 39.0462 7.77408L38.6187 8.07649C38.5499 8.12537 38.529 8.217 38.5648 8.29337L39.6233 10.5568L37.931 8.7424C37.8742 8.68131 37.7815 8.66909 37.7098 8.72101L37.2882 9.01731C37.2164 9.06924 37.1925 9.16088 37.2284 9.23725L38.8848 12.6645Z" fill="#767676"/>
<path d="M44.6586 9.002C44.8708 9.44187 45.4001 9.62514 45.8306 9.41132L46.5063 9.07225C46.9369 8.85537 47.1163 8.31471 46.907 7.87485L46.0548 6.10013C46.013 6.01154 45.9113 5.97794 45.8246 6.0207L44.9785 6.4453C44.8918 6.48806 44.8589 6.59191 44.9007 6.67744L45.0891 7.06538C45.131 7.15397 45.2356 7.19368 45.3193 7.15091L45.5825 7.01957L46.1326 8.15893C46.1744 8.24751 46.1326 8.35137 46.0489 8.39414L45.5884 8.62628C45.5077 8.66599 45.4031 8.63545 45.3612 8.54687L44.0965 5.91379C44.0576 5.83132 44.0935 5.72136 44.1742 5.68165L44.6346 5.44949C44.7213 5.40673 44.829 5.44338 44.8679 5.52586L44.9875 5.77634C45.0293 5.86492 45.131 5.89852 45.2177 5.85575L45.6482 5.63888C45.7349 5.59611 45.7678 5.49225 45.726 5.40672L45.5705 5.08599C45.3552 4.64002 44.829 4.46286 44.3984 4.67668L43.7227 5.01573C43.2862 5.23567 43.1098 5.76717 43.3251 6.21314L44.6586 9.002Z" fill="#767676"/>
<path d="M47.8365 7.46832C47.8455 7.51108 47.8515 7.52942 47.8634 7.55386L48.0817 8.12507C48.1176 8.21671 48.2132 8.25947 48.3029 8.22281L48.7484 8.04565C48.8381 8.00899 48.8799 7.91125 48.8441 7.81961L48.6168 7.22701L49.4689 6.88489L49.6961 7.47749C49.732 7.56913 49.8277 7.61189 49.9114 7.57829L50.3628 7.39807C50.4525 7.36141 50.4944 7.26366 50.4585 7.17203L50.2403 6.6008C50.2313 6.57331 50.2223 6.55498 50.2014 6.51833L48.285 3.146C48.2461 3.0788 48.1534 3.03298 48.0697 3.06659L47.116 3.44842C47.0323 3.48202 46.9845 3.56754 47.0054 3.65613L47.8365 7.46832ZM49.0982 6.19148L48.4225 6.46029L47.8814 4.03184L49.0982 6.19148Z" fill="#767676"/>
<path d="M50.4688 3.79675C50.6392 4.38626 51.2491 4.71004 51.8262 4.54204L52.1281 4.45041C52.2716 4.40765 52.4241 4.48401 52.4659 4.63063L52.7201 5.50115C52.7619 5.64777 52.6812 5.80354 52.5347 5.84936L52.2328 5.94099C52.0892 5.98375 51.9368 5.90128 51.8919 5.75161L51.7215 5.16821C51.6946 5.07352 51.6019 5.0216 51.5092 5.04909L51.0518 5.18959C50.9591 5.21708 50.9083 5.31177 50.9382 5.40646L51.0967 5.95627C51.2671 6.54578 51.88 6.88483 52.457 6.70767L52.759 6.61604C53.336 6.44193 53.6648 5.81576 53.4944 5.22624L53.2552 4.40154C53.0818 3.80592 52.4779 3.47297 51.8949 3.65013L51.5929 3.74177C51.4464 3.77843 51.297 3.70206 51.2521 3.5524L51.1325 3.1431C51.0907 2.99648 51.1744 2.8468 51.3179 2.80099L51.6199 2.70936C51.7634 2.66659 51.9158 2.74296 51.9577 2.88957L51.9995 3.03007C52.0265 3.12476 52.1191 3.17669 52.2118 3.1492L52.6692 3.0087C52.7619 2.98121 52.8128 2.88651 52.7829 2.79182L52.75 2.67881C52.5796 2.0893 51.9726 1.75025 51.3896 1.92741L51.0877 2.01904C50.5107 2.19315 50.1788 2.81932 50.3522 3.40883L50.4688 3.79675Z" fill="#767676"/>
<path d="M54.6702 5.15946C54.7688 5.64515 55.2293 5.95368 55.7017 5.85288L56.4372 5.69708C56.9066 5.59933 57.2146 5.12585 57.1159 4.64321L56.506 1.61602C56.4073 1.13032 55.9409 0.815681 55.4715 0.913432L54.736 1.06922C54.2606 1.17003 53.9586 1.64656 54.0572 2.13226L54.6702 5.15946ZM55.017 1.82984L55.5133 1.72598C55.606 1.70765 55.7017 1.75653 55.7196 1.85428L56.2997 4.72569C56.3176 4.82039 56.2548 4.92119 56.1621 4.93952L55.6658 5.04338C55.5731 5.06171 55.4745 4.99756 55.4565 4.90286L54.8795 2.03145C54.8585 1.93676 54.9243 1.85122 55.017 1.82984Z" fill="#767676"/>
<path d="M58.5955 5.31802L60.189 5.11336C60.2847 5.10114 60.3505 5.01561 60.3385 4.91786L60.2847 4.47494C60.2727 4.37719 60.189 4.31304 60.0934 4.32526L59.1456 4.44744L58.6672 0.56193C58.6553 0.464182 58.5716 0.400037 58.4759 0.412256L58.0005 0.473343C57.9048 0.485562 57.842 0.571096 57.854 0.668845L58.4101 5.17139C58.4161 5.26609 58.5028 5.33024 58.5955 5.31802Z" fill="#767676"/>
<path d="M61.5646 4.99733L62.0429 4.96374C62.1386 4.95763 62.2074 4.87515 62.2014 4.7774L61.9084 0.259554C61.9024 0.161804 61.8217 0.0823773 61.726 0.0915413L61.2477 0.125147C61.152 0.131257 61.0832 0.219844 61.0892 0.317593L61.3822 4.83544C61.3882 4.93319 61.4689 5.00344 61.5646 4.99733Z" fill="#767676"/>
<path d="M63.5587 4.8843H64.0012C64.0968 4.8843 64.1716 4.80793 64.1716 4.71018L64.1746 1.83582L65.0656 4.76212C65.0865 4.83848 65.1553 4.88736 65.23 4.88736H65.7353C65.831 4.88736 65.9057 4.81099 65.9057 4.71324L65.9117 0.177163C65.9117 0.0794154 65.837 0.00305758 65.7413 0.00305758H65.2838C65.1881 0.00305758 65.1134 0.0794154 65.1134 0.177163L65.1104 2.62696L64.3151 0.119124C64.2882 0.0488687 64.2254 0 64.1507 0H63.5617C63.466 0 63.3912 0.0763672 63.3912 0.174114L63.3853 4.71018C63.3882 4.80793 63.463 4.8843 63.5587 4.8843Z" fill="#767676"/>
<path d="M67.232 4.96386L68.8315 5.09827C68.9272 5.10743 69.008 5.03717 69.0169 4.93942L69.0528 4.49344C69.0618 4.39569 68.993 4.31321 68.8973 4.30405L67.9495 4.22462L68.0661 2.75532L68.6641 2.80419C68.7598 2.81336 68.8405 2.7431 68.8495 2.64535L68.8854 2.21464C68.8943 2.11689 68.8256 2.03441 68.7299 2.02525L68.1289 1.97637L68.2126 0.940828L69.1604 1.02025C69.2561 1.02942 69.3368 0.959162 69.3458 0.861412L69.3817 0.41542C69.3906 0.31767 69.3219 0.235195 69.2262 0.226031L67.6266 0.0916236C67.531 0.0824595 67.4502 0.152723 67.4413 0.250474L67.0795 4.77447C67.0675 4.87222 67.1363 4.9547 67.232 4.96386Z" fill="#767676"/>
<path d="M70.2539 5.2814L70.3825 5.29973L70.2778 5.45246C70.2539 5.48301 70.233 5.52272 70.227 5.56548L70.2091 5.69683C70.2001 5.75181 70.242 5.80679 70.2898 5.8129L70.52 5.8465C70.5678 5.85261 70.6216 5.8129 70.6276 5.75792L70.6336 5.72432C70.6395 5.69072 70.6635 5.65712 70.6724 5.6449L70.8279 5.41275C70.8458 5.37915 70.8578 5.34554 70.8637 5.31194L70.9444 4.73157C70.9564 4.63382 70.8996 4.55441 70.8189 4.54525L70.3645 4.47804C70.2689 4.46277 70.1851 4.52386 70.1732 4.61855L70.1074 5.08896C70.0955 5.18671 70.1582 5.26613 70.2539 5.2814Z" fill="#767676"/>
<path d="M72.1564 5.58054L73.3194 5.83103C73.9084 5.95932 74.4914 5.56832 74.614 4.96961L75.1491 2.38232C75.2747 1.77444 74.895 1.17879 74.306 1.05049L73.143 0.800006C73.0503 0.778624 72.9576 0.845824 72.9397 0.940518L72.0248 5.37283C72.0039 5.47058 72.0607 5.55916 72.1564 5.58054ZM73.6184 1.70724L74.1476 1.82026C74.2941 1.85081 74.3897 2.00049 74.3598 2.15017L73.8067 4.82604C73.7768 4.97572 73.6303 5.07348 73.4838 5.04293L72.9546 4.9299L73.6184 1.70724Z" fill="#767676"/>
<path d="M75.6192 6.40865L76.0796 6.54C76.1723 6.56749 76.265 6.51251 76.2889 6.42087L77.4938 2.05884C77.5207 1.96414 77.4699 1.86335 77.3772 1.83585L76.9168 1.7045C76.8241 1.677 76.7284 1.7381 76.7045 1.8328L75.4996 6.19483C75.4727 6.28646 75.5265 6.38116 75.6192 6.40865Z" fill="#767676"/>
<path d="M77.5533 6.99796L79.0692 7.53859C79.1589 7.57219 79.2545 7.52332 79.2874 7.43168L79.4309 7.01017C79.4638 6.91854 79.416 6.8208 79.3263 6.7872L78.4293 6.46648L78.9047 5.07671L79.4728 5.27831C79.5625 5.31191 79.6582 5.26303 79.691 5.1714L79.8316 4.76211C79.8645 4.67047 79.8166 4.57273 79.7269 4.53913L79.1589 4.33753L79.4967 3.35706L80.3937 3.67778C80.4834 3.71138 80.579 3.66251 80.6119 3.57088L80.7554 3.14936C80.7883 3.05773 80.7405 2.95998 80.6508 2.92638L79.1349 2.38575C79.0452 2.35215 78.9496 2.40103 78.9167 2.49266L77.4487 6.77498C77.4188 6.86967 77.4636 6.96741 77.5533 6.99796Z" fill="#767676"/>
<path d="M81.177 8.41873L81.464 8.54705C82.0142 8.7945 82.6629 8.53787 82.9051 7.97575L83.243 7.19063C83.4881 6.6224 83.24 5.96862 82.6839 5.71811L82.3968 5.5898C82.2623 5.52259 82.1965 5.36373 82.2563 5.22015L82.4237 4.83217C82.4835 4.69164 82.645 4.63359 82.7825 4.69469L83.0696 4.823C83.2071 4.8841 83.2729 5.04296 83.2131 5.18349L83.1563 5.31791C83.1174 5.4065 83.1562 5.50732 83.243 5.54703L83.6795 5.74561C83.7662 5.78532 83.8648 5.74561 83.9037 5.65701L83.9515 5.54703C84.1937 4.98491 83.9485 4.32503 83.3924 4.07452L83.1054 3.94621C82.5553 3.69875 81.9065 3.95538 81.6643 4.5175L81.5059 4.88105C81.2637 5.44317 81.5208 6.09388 82.068 6.34744L82.355 6.47575C82.4925 6.53685 82.5583 6.69571 82.4985 6.83624L82.1397 7.6672C82.0799 7.80773 81.9185 7.87189 81.778 7.81079L81.4909 7.68248C81.3534 7.62138 81.2906 7.45641 81.3504 7.31282L81.5896 6.75681C81.6285 6.66822 81.5896 6.5674 81.5029 6.52769L81.0664 6.32911C80.9797 6.2894 80.881 6.32912 80.8421 6.41771L80.6149 6.94011C80.3757 7.50834 80.6269 8.17128 81.177 8.41873Z" fill="#767676"/>
<path d="M83.5817 9.57932L84.9959 10.3582C85.0796 10.4041 85.1812 10.3735 85.2261 10.288L85.4324 9.89394C85.4772 9.80841 85.4473 9.70456 85.3636 9.65874L84.5265 9.19749L85.2111 7.90234L85.7403 8.19253C85.824 8.23835 85.9257 8.2078 85.9705 8.12227L86.1709 7.74045C86.2157 7.65492 86.1858 7.55106 86.1021 7.50525L85.5729 7.21505L86.0543 6.29867L86.8914 6.75992C86.9751 6.80574 87.0768 6.77519 87.1246 6.68966L87.3309 6.29561C87.3757 6.21008 87.3458 6.10623 87.2621 6.06041L85.848 5.28149C85.7642 5.23567 85.6626 5.26621 85.6177 5.35174L83.513 9.34412C83.4651 9.42965 83.495 9.5335 83.5817 9.57932Z" fill="#767676"/>
<path d="M86.2416 11.1065L87.596 11.9862C87.6767 12.0381 87.7814 12.0137 87.8322 11.9312L88.0654 11.5555C88.1162 11.473 88.0923 11.3661 88.0146 11.3142L87.2073 10.7919L89.2614 7.48377C89.3122 7.4013 89.2883 7.29438 89.2075 7.24246L88.8039 6.97977C88.7232 6.92784 88.6185 6.95227 88.5677 7.03475L86.1878 10.8652C86.137 10.9477 86.1609 11.0546 86.2416 11.1065Z" fill="#767676"/>
<path d="M88.9195 12.1422L88.6473 12.527C88.5905 12.6065 88.6115 12.7073 88.6892 12.7653L88.7939 12.8417L88.6324 12.9272C88.5965 12.9424 88.5606 12.9699 88.5367 13.0035L88.462 13.1105C88.4291 13.1563 88.441 13.2235 88.4799 13.254L88.6683 13.3915C88.7072 13.4189 88.7729 13.4098 88.8058 13.364L88.8268 13.3365C88.8477 13.309 88.8836 13.2907 88.8985 13.2846L89.1407 13.1532C89.1706 13.1318 89.1975 13.1074 89.2185 13.0799L89.5534 12.6034C89.6102 12.524 89.5952 12.4262 89.5264 12.3774L89.1557 12.1055C89.0749 12.0505 88.9733 12.0628 88.9195 12.1422Z" fill="#767676"/>
<path d="M90.6254 14.2621C90.7002 14.3232 90.8048 14.311 90.8646 14.2377L92.1563 12.6126L92.6287 13.0036C92.7034 13.0646 92.808 13.0524 92.8678 12.9791L93.1399 12.637C93.1997 12.5606 93.1908 12.4537 93.116 12.3926L92.6436 12.0016L93.2804 11.2013L94.0219 11.8183C94.0967 11.8794 94.2013 11.8703 94.2611 11.7939L94.5362 11.4456C94.596 11.3693 94.584 11.2624 94.5123 11.2013L93.2655 10.1657C93.1908 10.1046 93.0861 10.1138 93.0263 10.1901L90.2248 13.7123C90.165 13.7886 90.177 13.8955 90.2487 13.9566L90.6254 14.2621Z" fill="#767676"/>
<path d="M93.0097 16.3697L93.5539 16.8982C93.9007 17.2342 94.4598 17.222 94.7916 16.8676L97.3629 14.1063C97.4286 14.036 97.4316 13.923 97.3599 13.8558L97.013 13.5198C96.9443 13.4526 96.8337 13.4617 96.7679 13.532L94.2535 16.2323C94.1877 16.3025 94.0771 16.3025 94.0083 16.2323L93.6406 15.8749C93.5718 15.8077 93.5628 15.6947 93.6286 15.6244L96.143 12.9241C96.2088 12.8538 96.2118 12.7408 96.14 12.6736L95.7932 12.3376C95.7245 12.2704 95.6138 12.2796 95.5481 12.3498L92.9768 15.1112C92.6509 15.4625 92.6629 16.0337 93.0097 16.3697Z" fill="#767676"/>
<path d="M95.0967 18.499L96.167 19.7207C96.2298 19.7941 96.3374 19.8002 96.4092 19.733L96.7351 19.4336C96.8068 19.3695 96.8128 19.2595 96.747 19.1862L96.1132 18.4623L97.1865 17.4788L97.5872 17.9369C97.6499 18.0102 97.7576 18.0163 97.8293 17.9491L98.1432 17.659C98.215 17.5948 98.221 17.4849 98.1552 17.4116L97.7546 16.9534L98.511 16.26L99.1448 16.9809C99.2076 17.0542 99.3152 17.0603 99.387 16.9931L99.7129 16.6938C99.7846 16.6296 99.7906 16.5197 99.7248 16.4463L98.6545 15.2245C98.5917 15.1512 98.4841 15.1451 98.4123 15.2123L95.1057 18.2393C95.0369 18.3187 95.0339 18.4256 95.0967 18.499Z" fill="#767676"/>
<path d="M97.0815 20.8508L98.0652 22.1459C98.125 22.2223 98.2296 22.2375 98.3044 22.1765L98.6512 21.9016C98.726 21.8405 98.7409 21.7336 98.6811 21.6572L98.0951 20.8845L101.124 18.4867C101.199 18.4257 101.214 18.3188 101.154 18.2424L100.861 17.8575C100.801 17.7812 100.696 17.7659 100.622 17.827L97.1114 20.6034C97.0367 20.6645 97.0247 20.7714 97.0815 20.8508Z" fill="#767676"/>
<path d="M100.383 25.7201L100.759 26.383C100.999 26.8045 101.537 26.9542 101.955 26.7067L104.572 25.152C104.99 24.9015 105.134 24.3486 104.894 23.9271L104.518 23.2642C104.273 22.8366 103.734 22.6961 103.316 22.9435L100.7 24.4983C100.278 24.7487 100.138 25.2925 100.383 25.7201ZM101.187 25.1764L103.666 23.701C103.749 23.6522 103.848 23.6888 103.896 23.7743L104.15 24.2203C104.198 24.3058 104.18 24.4127 104.096 24.4616L101.615 25.937C101.531 25.9859 101.42 25.9553 101.372 25.8728L101.118 25.4269C101.076 25.3413 101.106 25.2253 101.187 25.1764Z" fill="#767676"/>
<path d="M101.812 28.3868L102.024 28.8236C102.066 28.9121 102.168 28.9457 102.251 28.903L106.228 26.8961C106.315 26.8534 106.354 26.7465 106.312 26.6579L106.099 26.2211C106.058 26.1325 105.95 26.102 105.863 26.1447L101.887 28.1516C101.803 28.1974 101.767 28.3012 101.812 28.3868Z" fill="#767676"/>
<path d="M107.079 28.3502C107.043 28.2586 106.945 28.2188 106.855 28.2555L102.762 30.015C102.675 30.0516 102.633 30.1524 102.672 30.2441L103.294 31.7561C103.33 31.8447 103.429 31.8875 103.518 31.8478L103.922 31.6737C104.012 31.637 104.051 31.5362 104.015 31.4446L103.644 30.5434L107.178 29.0253C107.265 28.9886 107.306 28.8878 107.271 28.7962L107.079 28.3502Z" fill="#767676"/>
</svg>
