<svg width="30" height="53" viewBox="0 0 30 53" fill="none" xmlns="http://www.w3.org/2000/svg">
<path d="M15 0C7.01764 0 0.521729 6.7533 0.521729 15.0526V37C0.521729 45.3009 7.01764 52.0526 15 52.0526C22.9823 52.0526 29.4782 45.3009 29.4782 37V15.0526C29.4782 6.7533 22.9823 0 15 0ZM15 48.8352C9.31164 48.8352 4.60621 44.3743 3.85495 38.6087H26.1434C25.3938 44.3759 20.6883 48.8352 15 48.8352ZM26.2609 35.3913H3.73912V15.0526C3.73912 8.52609 8.79042 3.21739 15 3.21739C21.2095 3.21739 26.2609 8.52609 26.2609 15.0526V35.3913Z" fill="#2B2B2B"/>
</svg>
